<?xml version="1.0" encoding="utf-8"?>
<!-- Generator: Adobe Illustrator 28.0.0, SVG Export Plug-In . SVG Version: 6.00 Build 0)  -->
<svg version="1.1" id="Layer_1" xmlns="http://www.w3.org/2000/svg" xmlns:xlink="http://www.w3.org/1999/xlink" x="0px" y="0px"
	 viewBox="0 0 720 720" style="enable-background:new 0 0 720 720;" xml:space="preserve">
<style type="text/css">
	.st0{fill:#74A84D;}
	.st1{fill:#CB0000;}
	.st2{fill:#73AA4A;}
	.st3{fill:#010101;}
	.st4{fill:#2C2C2C;}
</style>
<g>
	<path d="M653.92,350.39c-1.17-11.54-5.77-21.92-11.93-31.62c-11.3-17.76-26.85-31.06-44.66-41.94
		c-20.4-12.47-42.38-21.18-65.42-27.34c-23.08-6.17-46.49-10.57-70.33-12.15c-20.66-1.37-41.37-1.34-62.08-1.15
		c-16.2,0.15-32.37,0.83-48.44,3.02c-6.9,0.94-13.81,1.78-20.72,2.66c-1.14,0.14-2.33,0.21-3.08-0.85c-2.09-2.96-5.09-4.47-8.4-5.54
		h-5.07c-0.56,0.64-1.41,0.52-2.11,0.78c-5.43,2.02-9.28,7.97-8.86,13.77c0.41,5.59,5.02,10.83,10.57,12
		c5.99,1.27,12.32-1.17,14.55-6.63c1.63-4.01,3.99-5.15,7.97-5.46c10.38-0.8,20.71-2.1,31.08-3.07c12.62-1.18,25.3-1.44,37.96-1.87
		c31.08-1.04,62.06-0.36,92.78,5.19c25.32,4.57,49.97,11.32,73.39,22.1c18.55,8.53,35.92,18.91,50.7,33.23
		c10.46,10.14,19.34,21.37,24.22,35.29c4.06,11.58,5.9,23.46,3.16,35.61c-2.47,10.89-7.74,20.55-14.03,29.69
		c-5.19,7.55-11.36,14.29-17.18,21.33c-0.1,0.45,0.07,0.63,0.52,0.52c10.34-9.37,19.04-20.03,26-32.15
		C652.63,381.67,655.55,366.47,653.92,350.39z M316.63,258.87c-5.55,0.13-10.32-4.38-10.33-9.78c-0.01-5.69,4.23-10.1,9.87-10.24
		c5.65-0.14,10.04,4.22,10.14,10.08C326.4,254.21,321.99,258.75,316.63,258.87z"/>
	<path class="st0" d="M154.77,390.68c0-15.97,0.03-31.93-0.04-47.9c-0.01-1.8,0.39-2.36,2.3-2.38c23.8-0.17,47.59-0.44,71.39-0.69
		c2.96-0.03,5.9,0.2,8.81,0.8c9.08,1.87,13.79,7.17,14.44,16.4c0.19,2.73,0.31,5.48,0.31,8.22c0.02,24.55-0.01,49.09,0.06,73.64
		c0.01,1.91-0.53,2.33-2.35,2.29c-5.84-0.12-11.69-0.11-17.53,0c-1.69,0.03-2.07-0.47-2.07-2.1c0.05-24.12,0.04-48.25,0.03-72.37
		c0-0.98,0.03-1.98-0.13-2.94c-0.52-3.17-2.02-4.51-5.25-4.64c-2.74-0.11-5.5,0.03-8.23-0.17c-1.91-0.13-2.34,0.53-2.34,2.36
		c0.06,21.66,0.04,43.33,0.04,64.99c0,4.36-0.05,8.72,0.03,13.08c0.03,1.38-0.39,1.79-1.77,1.78c-5.98-0.07-11.97-0.09-17.95,0.01
		c-1.68,0.03-2.09-0.45-2.09-2.1c0.05-24.55,0.05-49.09,0.03-73.64c-0.01-7.44,0.28-6.11-6.39-6.43c-2.32-0.11-4.65,0.1-6.97-0.05
		c-1.98-0.13-2.62,0.43-2.61,2.53c0.08,25.67,0.03,51.34,0.1,77.02c0.01,2.02-0.32,2.77-2.58,2.69c-5.56-0.2-11.13-0.15-16.68-0.02
		c-1.98,0.05-2.59-0.38-2.58-2.49C154.82,422.61,154.77,406.64,154.77,390.68z"/>
	<path class="st1" d="M483.25,361.63c0-2.25-0.16-4.49-0.46-6.72c-1.08-7.88-5.38-12.46-13.12-13.83c-2-0.36-4.05-0.53-6.09-0.57
		c-5.63-0.08-11.26-0.1-16.89-0.02c-1.49,0.02-1.89-0.41-1.87-1.89c0.07-7.31,0-14.62,0.06-21.93c0.01-1.39-0.36-1.79-1.76-1.77
		c-5.84,0.07-11.69,0.12-17.52-0.02c-2-0.05-2.59,0.41-2.58,2.5c0.08,20.25,0.05,40.49,0.05,60.74c0,20.32,0.02,40.63-0.04,60.96
		c0,1.56,0.37,1.99,1.95,2.01c7.6,0.13,15.2,0.51,22.8,0.58c6.81,0.06,13.66,0.58,20.43-0.67c8.51-1.56,12.91-5.86,14.48-14.24
		c0.44-2.35,0.58-4.73,0.57-7.13C483.23,400.3,483.24,380.97,483.25,361.63z M461.38,414.84c0,1.05,0.01,2.12-0.14,3.16
		c-0.41,2.8-2.15,4.39-4.99,4.46c-3.24,0.07-6.48-0.05-9.71,0.06c-1.46,0.05-1.72-0.49-1.71-1.8c0.05-9.99,0.03-19.97,0.03-29.96
		c0-9.91,0.03-19.83-0.04-29.75c-0.01-1.64,0.39-2.2,2.09-2.12c2.95,0.14,5.91-0.01,8.87,0.07c3.68,0.09,5.42,1.76,5.54,5.46
		c0.14,4.01,0.06,8.01,0.06,12.02C461.38,389.24,461.39,402.04,461.38,414.84z"/>
	<path class="st1" d="M551.23,408.42c-6.12,0.04-12.25,0.06-18.38-0.01c-1.25-0.01-1.51,0.43-1.48,1.56
		c0.07,2.81,0.1,5.63-0.02,8.44c-0.15,3.69-1.65,5.2-5.33,5.44c-1.76,0.11-3.52,0.1-5.28,0.04c-4.27-0.16-5.79-1.7-5.84-6
		c-0.06-5.13,0.05-10.27-0.07-15.4c-0.05-1.79,0.35-2.37,2.27-2.38c11.05-0.05,22.1-0.31,33.15-0.34c2.03-0.01,2.33-0.68,2.32-2.47
		c-0.08-10.55-0.05-21.1-0.03-31.64c0.01-2.96-0.12-5.9-0.42-8.84c-0.9-9-5.43-14.02-14.27-15.83c-3.6-0.74-7.25-1-10.91-1.05
		c-6.9-0.11-13.8-0.25-20.58,1.42c-7.26,1.78-11.58,6.21-12.66,13.71c-0.48,3.35-0.73,6.7-0.72,10.08c0,8.51,0,17.02,0,25.53
		c0,8.01,0.01,16.03-0.01,24.05c-0.01,3.1,0.12,6.18,0.39,9.27c0.87,9.72,5.31,14.73,14.92,16.64c7.02,1.39,14.13,1.28,21.24,0.95
		c4.59-0.22,9.11-0.8,13.36-2.69c5.01-2.24,7.87-6.09,8.83-11.5c1.04-5.87,0.73-11.77,0.83-17.67
		C552.57,408.68,552.23,408.42,551.23,408.42z M514.82,380.2c0.21-2.8,0.05-5.62,0.05-8.43h0.03c0-2.88-0.06-5.76,0.01-8.64
		c0.09-3.7,1.59-5.2,5.32-5.34c2.03-0.08,4.09-0.08,6.12,0.08c2.72,0.22,3.95,1.34,4.3,4.03c0.61,4.76,0.19,9.55,0.24,14.32
		c0.02,2.01,0.92,4.69-0.4,5.84c-1.14,0.99-3.76,0.3-5.72,0.32c-2.53,0.02-5.07-0.1-7.6,0.04
		C515.41,382.53,514.68,382.19,514.82,380.2z"/>
	<path class="st0" d="M319.37,408.45c-5.98-0.01-11.97,0.04-17.95-0.04c-1.39-0.02-1.64,0.5-1.6,1.72c0.08,2.6,0.06,5.2,0.01,7.8
		c-0.08,4.17-1.62,5.74-5.74,5.91c-1.54,0.06-3.1,0.06-4.64,0.01c-4.67-0.16-6.08-1.6-6.12-6.34c-0.04-5.13,0.05-10.27-0.05-15.4
		c-0.03-1.63,0.5-1.98,2.03-1.99c11.12-0.09,22.24-0.3,33.36-0.38c1.76-0.01,2.41-0.32,2.36-2.28c-0.15-6.04,0.01-12.09-0.07-18.14
		c-0.1-7.44,0.33-14.9-0.38-22.34c-0.86-9.14-5.5-14.28-14.54-16.05c-3.54-0.69-7.12-0.93-10.7-1.02
		c-7.03-0.17-14.09-0.25-20.97,1.53c-6.97,1.81-11.11,6.22-12.19,13.44c-0.5,3.35-0.77,6.69-0.76,10.07c0,8.58,0,17.15,0,27.82
		c0.29,9.01-0.48,20.12,0.4,31.22c0.73,9.16,4.64,14.27,13.52,16.23c10.62,2.35,21.38,2.33,32.02-0.03
		c7.38-1.64,11.93-6.12,13-13.89c0.76-5.61,0.53-11.22,0.61-16.84C320.99,408.18,320.09,408.46,319.37,408.45z M283.38,362.87
		c0.05-3.34,1.62-4.89,4.92-5.05c2.1-0.1,4.22-0.1,6.32,0.03c2.81,0.18,4.02,1.33,4.49,4.09c0.58,3.42,0.06,6.87,0.25,9.57
		c0,3.6-0.05,6.48,0.02,9.36c0.03,1.21-0.38,1.56-1.57,1.55c-4.36-0.06-8.71-0.05-13.07,0c-1.1,0.01-1.45-0.33-1.44-1.43
		C283.35,374.94,283.29,368.9,283.38,362.87z"/>
	<path class="st1" d="M331.04,379.88c0-19.62,0.02-39.23-0.04-58.85c-0.01-1.65,0.41-2.07,2.06-2.07
		c16.61,0.07,33.22,0.06,49.84,0.01c1.37,0,1.96,0.18,1.92,1.77c-0.11,5.27-0.1,10.55,0,15.82c0.03,1.54-0.32,2-1.94,1.98
		c-9.01-0.09-18.02,0-27.03-0.08c-1.57-0.01-1.99,0.36-1.98,1.96c0.08,9.63,0.09,19.27-0.01,28.9c-0.02,1.76,0.57,2.04,2.14,2.02
		c8.02-0.07,16.05,0,24.07-0.06c1.33-0.01,1.79,0.27,1.77,1.71c-0.09,5.98-0.09,11.95,0,17.93c0.02,1.51-0.55,1.67-1.81,1.66
		c-8.02-0.05-16.05,0.02-24.07-0.06c-1.64-0.02-2.1,0.39-2.09,2.07c0.07,14.76,0.01,29.53,0.08,44.3c0.01,1.72-0.35,2.23-2.15,2.19
		c-6.26-0.12-12.53-0.12-18.79,0c-1.76,0.03-2.01-0.57-2.01-2.12C331.06,419.25,331.04,399.57,331.04,379.88z"/>
	<path class="st1" d="M625.14,413.19c1.36-2.2,2.69-4.42,4.08-6.59c5.31-8.32,8.76-17.43,11.06-26.95
		c2.95-12.22,0.31-23.69-5.49-34.57c-6.28-11.8-15.58-20.92-26.07-28.92c-15.85-12.08-33.64-20.54-52.21-27.47
		c-21.73-8.1-44.21-13.32-67.08-17.01c-30.84-4.98-61.86-6.26-93.03-5.13c-12.52,0.45-25.05,0.67-37.54,1.82
		c-16.12,1.49-32.18,3.31-47.96,7.06c-1.56,0.37-2.3,1.16-2.62,2.59c-0.28,1.23-0.45,2.5-0.87,3.68c-2.57,7.17-10.2,11.29-18.07,9.8
		c-7.09-1.33-12.68-8.19-12.26-15.54c0.35-6.22,3.68-10.72,9.39-13.15c6.13-2.6,11.83-1.48,16.89,2.84c0.59,0.5,1.12,1.07,1.62,1.66
		c0.93,1.11,2.1,1.34,3.42,0.97c10.07-2.8,20.49-3.54,30.78-4.99c23.04-3.25,46.22-4.56,69.47-4.5c17.67,0.05,35.34,0.31,52.95,2.02
		c35.06,3.39,69.34,10.33,102.25,23.17c19.17,7.48,37.09,17.17,52.77,30.67c9.92,8.54,18.02,18.46,23.64,30.39
		c5.44,11.56,6.78,23.29,3.03,35.61c-3.52,11.57-8.79,22.15-16.63,31.41c-0.4,0.47-0.82,0.92-1.24,1.38
		C625.33,413.38,625.23,413.28,625.14,413.19z"/>
	<path class="st0" d="M65.68,379.78c0-19.55,0.03-39.09-0.04-58.64c-0.01-1.78,0.49-2.21,2.23-2.18c6.19,0.11,12.39,0.12,18.58,0
		c1.83-0.04,2.15,0.55,2.15,2.24c-0.05,32.55-0.04,65.1-0.03,97.66c0,3.03-0.42,2.66,2.7,2.67c8.16,0.02,16.33,0.05,24.49-0.03
		c1.58-0.02,2.02,0.4,1.99,1.98c-0.1,5.27-0.09,10.55-0.01,15.82c0.02,1.41-0.42,1.74-1.78,1.74c-16.19-0.04-32.38-0.05-48.57,0.01
		c-1.67,0.01-1.74-0.7-1.74-2C65.69,419.29,65.68,399.54,65.68,379.78z"/>
	<path class="st1" d="M587.65,339.84c5.41,0.27,10.82,0.6,16.24,0.78c1.49,0.05,1.88,0.55,1.85,1.99c-0.09,4.5-0.05,9-0.02,13.5
		c0.01,1.01-0.04,1.68-1.38,1.79c-5.33,0.45-10.64,1.11-15.96,1.53c-4.82,0.38-5.76,1.24-5.76,6.04
		c-0.01,18.85-0.01,37.7-0.01,56.55c0,5.77-0.04,11.53,0.03,17.3c0.02,1.37-0.34,1.76-1.74,1.75c-6.12-0.08-12.25-0.08-18.38,0
		c-1.4,0.02-1.73-0.4-1.73-1.76c0.04-27.29-0.01-54.58,0.05-81.86c0.02-10.43,6.91-17.24,17.73-17.67c3.02-0.12,6.05-0.02,9.08-0.02
		C587.65,339.77,587.65,339.81,587.65,339.84z"/>
	<path class="st0" d="M123.63,390.56c0-15.96,0.03-31.93-0.04-47.89c-0.01-1.69,0.33-2.29,2.16-2.25
		c5.91,0.12,11.83,0.08,17.74,0.02c1.37-0.02,1.79,0.37,1.78,1.77c-0.04,32.35-0.04,64.7,0,97.04c0,1.35-0.32,1.81-1.74,1.79
		c-5.98-0.08-11.97-0.09-17.95,0.01c-1.57,0.02-2-0.37-1.99-1.97C123.66,422.91,123.63,406.74,123.63,390.56z"/>
	<path class="st1" d="M413.16,390.98c0,15.97-0.03,31.93,0.04,47.9c0.01,1.76-0.42,2.21-2.18,2.17c-5.84-0.12-11.69-0.1-17.53-0.01
		c-1.49,0.02-2.01-0.23-2.01-1.9c0.06-32.29,0.05-64.57,0.01-96.86c0-1.46,0.34-1.89,1.84-1.86c5.98,0.09,11.97,0.11,17.96-0.01
		c1.7-0.03,1.9,0.56,1.9,2.03C413.14,358.63,413.16,374.81,413.16,390.98z"/>
	<path class="st2" d="M630.05,354.2c-4.23-7.3-9.52-13.77-15.75-19.43c-11.39-10.38-24.5-18.15-38.41-24.57
		c-20.25-9.35-41.51-15.67-63.29-20.27c-14.24-3-28.59-5.39-43.07-6.89c-7.42-0.77-14.86-1.23-22.3-1.74
		c-12.58-0.85-25.17-1.37-37.77-1.3c-15.63,0.09-31.22,1.22-46.77,2.72c-3.65,0.36-7.18,0.74-9.77-2.63
		c-0.08-0.11-0.22-0.17-0.34-0.25c-4.94-3.1-11.27-1.43-14.17,3.75c-2.74,4.89-0.66,11.27,4.49,13.8
		c5.05,2.48,11.18,0.27,13.36-5.03c0.83-2.03,2.12-2.74,4.15-2.86c4.21-0.25,8.42-0.62,12.62-0.96c16.49-1.35,32.98-2.26,49.55-1.77
		c22.6,0.67,45.12,2.13,67.46,5.66c20.91,3.31,41.6,7.71,61.68,14.49c18.17,6.13,35.69,13.75,51.49,24.82
		c8.75,6.13,16.85,13.01,22.58,22.19c7.68,12.3,9.29,25.2,3.52,38.79c-3.59,8.47-8.52,16.13-13.84,23.58
		c-0.59,0.82-1.14,1.67-1.89,2.78c0.53-0.16,0.67-0.17,0.75-0.25c0.46-0.44,0.91-0.88,1.34-1.35c7.43-8.14,13.11-17.39,17.09-27.63
		C637.51,377.59,636.69,365.65,630.05,354.2z M347.23,295.47c-4.21-0.03-7.31-3.14-7.27-7.31c0.03-4,3.41-7.24,7.49-7.18
		c3.9,0.05,7.03,3.36,7.01,7.41C354.43,292.51,351.39,295.5,347.23,295.47z"/>
	<path class="st1" d="M134.34,311.9c6.55-0.04,11.98,5.32,12.05,11.88c0.06,6.5-5.36,11.97-11.92,12.02
		c-6.53,0.05-12.02-5.37-12.04-11.89C122.4,317.36,127.78,311.93,134.34,311.9z"/>
	<path d="M423.6,464.08c0-3.16-0.06-6.33,0.02-9.49c0.09-3.9,1.66-5.43,5.59-5.55c1.9-0.06,3.81-0.09,5.69,0.06
		c3.09,0.26,4.45,1.58,4.72,4.64c0.19,2.16,0.08,4.35,0.11,6.53c0.01,0.5,0.06,1.01-0.7,1c-1.41-0.02-2.81-0.01-4.22-0.01
		c-0.92,0-0.7-0.69-0.7-1.2c-0.02-1.55,0-3.09-0.03-4.64c-0.03-1.69-1.17-1.79-2.48-1.79c-1.35,0-2.41,0.2-2.4,1.88
		c0.01,5.69,0.01,11.38-0.01,17.08c-0.01,1.7,1.06,1.87,2.39,1.89c1.41,0.02,2.55-0.16,2.53-1.97c-0.02-1.69,0.07-3.38-0.02-5.06
		c-0.07-1.24,0.42-1.5,1.57-1.51c4.09-0.04,4.1-0.09,4.08,4.01c-0.01,1.75,0.16,3.52-0.23,5.25c-0.54,2.42-1.69,3.5-4.15,3.76
		c-2.31,0.25-4.64,0.24-6.95,0.04c-3.12-0.27-4.61-1.69-4.72-4.82c-0.12-3.37-0.03-6.74-0.03-10.12
		C423.62,464.08,423.61,464.08,423.6,464.08z"/>
	<path d="M494.05,470.96c-1.36-0.02-2.14,0.16-1.91,1.76c0.22,1.51-0.47,2.12-2.05,2.11c-1.5-0.02-1.93-0.63-1.97-2.02
		c-0.1-3.81-0.14-3.81,3.7-3.86c0.07,0,0.14,0,0.21,0c1.74-0.12,4,0.69,5.08-0.37c1.09-1.08,0.18-3.34,0.39-5.28
		c-0.07-1.48-0.07-3.18-0.24-4.85c-0.25-2.49-1.36-3.56-3.86-3.96c-2.17-0.34-4.34-0.35-6.51-0.02c-2.79,0.41-4.04,1.63-4.09,4.42
		c-0.08,5.2-0.08,10.4,0,15.59c0.05,2.84,1.41,4.19,4.25,4.52c1.96,0.23,3.93,0.23,5.9,0.01c2.91-0.33,4.07-1.51,4.38-4.41
		C497.71,470.96,497.71,471.02,494.05,470.96z M488.07,461.8c0.38-1.03-0.62-2.52,1.04-3.07c1.9-0.63,2.92,0.14,2.96,2.17
		c0.01,0.49,0,0.98,0,1.47c0,2.12-1.43,3.15-3.39,2.23C487.5,464.05,488.43,462.73,488.07,461.8z"/>
	<path d="M464.6,466.72C464.6,466.72,464.6,466.72,464.6,466.72c-0.01-2.6,0.09-5.21-0.03-7.81c-0.13-2.82-1.31-3.99-4.1-4.47
		c-2.24-0.38-4.48-0.38-6.72,0.03c-2.68,0.48-3.86,1.69-3.9,4.39c-0.08,5.2-0.09,10.41,0,15.61c0.05,2.85,1.41,4.2,4.25,4.53
		c1.96,0.23,3.94,0.22,5.9,0.02c3.08-0.31,4.44-1.64,4.58-4.71C464.69,471.79,464.6,469.25,464.6,466.72z M459.21,466.65h-0.03
		c0,2.1-0.03,4.2,0.01,6.31c0.03,1.41-0.68,1.81-1.95,1.81c-1.22,0-2.07-0.26-2.06-1.7c0.03-4.28,0.05-8.55,0.05-12.83
		c0-1.58,1.05-1.51,2.16-1.54c1.2-0.03,1.87,0.33,1.84,1.65C459.19,462.44,459.21,464.55,459.21,466.65z"/>
	<path d="M543.55,458.65c-0.07-2.58-1.34-3.72-3.91-4.18c-2.31-0.41-4.62-0.42-6.93,0.01c-2.64,0.49-3.77,1.71-3.86,4.44
		c-0.08,2.6-0.02,5.21-0.02,7.81h-0.03v7.17c0,0.21,0.02,0.42,0.03,0.63c0.18,2.74,1.4,4.11,4.12,4.46
		c2.17,0.27,4.36,0.27,6.53-0.01c2.6-0.34,3.99-1.65,4.06-4.29C543.69,469.34,543.69,463.99,543.55,458.65z M538.23,466.64h-0.02
		c0,2.03-0.05,4.07,0.01,6.1c0.04,1.42-0.49,2.03-1.96,2.03c-1.38,0-2.1-0.42-2.08-1.92c0.05-4.14,0.08-8.27,0.04-12.41
		c-0.01-1.62,0.89-1.75,2.17-1.77c1.38-0.02,1.89,0.52,1.85,1.87C538.19,462.58,538.23,464.61,538.23,466.64z"/>
	<path d="M584.12,458.69c-0.06-2.59-1.33-3.76-3.88-4.22c-2.31-0.42-4.62-0.42-6.93,0c-2.67,0.49-3.8,1.7-3.89,4.41
		c-0.09,2.6-0.02,5.2-0.02,7.8h-0.03c0,2.39,0,4.78,0,7.18c0,0.21,0.01,0.42,0.03,0.63c0.18,2.77,1.38,4.14,4.09,4.49
		c2.17,0.28,4.36,0.28,6.53,0c2.61-0.34,4.02-1.62,4.09-4.26C584.26,469.38,584.25,464.03,584.12,458.69z M578.79,472.9
		c0.01,1.35-0.57,1.86-1.89,1.87c-1.33,0.01-2.17-0.31-2.14-1.85c0.05-2.1,0.01-4.21,0.01-6.31h0.04c0-2.03,0.05-4.07-0.01-6.1
		c-0.05-1.56,0.77-1.84,2.11-1.83c1.32,0,1.93,0.41,1.91,1.81C578.76,464.62,578.75,468.76,578.79,472.9z"/>
	<path d="M601.1,466.76c0,3.59-0.05,7.18,0.03,10.76c0.03,1.2-0.33,1.56-1.52,1.53c-2.88-0.05-5.78,0.13-8.66,0.02
		c-3.25-0.13-4.63-1.57-4.66-4.75c-0.06-6.19,0.01-12.38-0.05-18.57c-0.01-1.19,0.44-1.34,1.47-1.36c3.96-0.07,3.96-0.1,3.96,3.75
		c0,4.64-0.01,9.29,0.01,13.93c0.01,2.09,1.54,3.08,3.49,2.33c0.91-0.35,0.45-1.09,0.46-1.62c0.04-5.56,0.07-11.11-0.01-16.67
		c-0.02-1.39,0.36-1.75,1.74-1.73c3.74,0.05,3.75-0.02,3.75,3.72C601.1,460.99,601.1,463.87,601.1,466.76z"/>
	<path d="M559.63,471.92c1-5.3,2.04-10.59,2.95-15.9c0.21-1.22,0.55-1.63,1.82-1.63c3.69-0.01,3.69-0.07,3.01,3.52
		c-1.53,8.13-3.12,16.24-4.52,24.39c-0.3,1.76-0.87,2.45-2.64,2.18c-0.88-0.13-1.81-0.02-2.86-0.02c0.27-1.62,0.42-3.09,0.8-4.5
		c0.3-1.13-0.08-1.44-1.07-1.27c-1.59,0.27-1.93-0.5-2.18-1.94c-1.22-6.97-2.59-13.92-3.94-20.86c-0.2-1.05-0.13-1.46,1.14-1.49
		c4.33-0.11,4.32-0.17,5.01,4.11c0.73,4.49,1.47,8.98,2.21,13.47C559.43,471.95,559.53,471.94,559.63,471.92z"/>
	<path d="M473.25,479.12c-0.85-0.04-1.48-0.05-2.11-0.1c-3.86-0.28-6.2-3.92-4.91-7.57c0.2-0.57,0.56-0.51,0.97-0.52
		c0.63-0.01,1.27,0.06,1.9-0.02c1.69-0.19,2.87,0.04,2.5,2.22c-0.19,1.12,0.47,1.64,1.63,1.65c1.12,0.01,1.66-0.46,1.83-1.56
		c0.48-3.06,0.02-3.89-2.93-5.06c-0.07-0.03-0.13-0.06-0.19-0.08c-5.73-2.27-6.81-4.26-5.55-10.28c0.37-1.78,1.49-2.86,3.22-3.21
		c2.36-0.48,4.76-0.52,7.13-0.03c2.48,0.51,4.6,5.28,3.19,7.22c-0.55,0.75-1.58,0.22-2.38,0.31c-1.64,0.18-3.1,0.19-2.71-2.23
		c0.17-1.06-0.7-1.19-1.55-1.19c-0.81,0-1.58,0.01-1.69,1.09c-0.16,1.69-0.2,3.3,1.97,3.78c0.34,0.07,0.67,0.21,0.98,0.36
		c1.9,0.94,4.53,0.94,5.36,3.29c1.02,2.9,0.72,5.97,0.09,8.92c-0.41,1.9-2.07,2.55-3.81,2.82
		C475.16,479.1,474.09,479.07,473.25,479.12z"/>
	<path class="st1" d="M402.71,311.9c-6.55,0.02-11.96,5.45-11.93,11.99c0.03,6.53,5.49,11.94,12.02,11.91
		c6.56-0.03,11.95-5.46,11.92-12C414.7,317.24,409.29,311.88,402.71,311.9z M402.83,332.43c-4.65,0.05-8.61-3.84-8.67-8.51
		c-0.05-4.66,3.84-8.61,8.53-8.64c4.68-0.04,8.62,3.83,8.66,8.5C411.39,328.44,407.52,332.37,402.83,332.43z"/>
	<path d="M518.73,467.46c0-2.39,0.01-4.78-0.01-7.17c0-0.46,0.23-1.18-0.35-1.3c-2.84-0.59-0.71-2.76-1.33-4.03
		c-0.04-0.09,0.07-0.36,0.13-0.37c2.89-0.34,1.32-2.55,1.49-3.88c0.16-1.26,0.29-2,1.73-1.72c0.14,0.03,0.28,0,0.42,0
		c3.35-0.01,3.42,0,3.34,3.42c-0.03,1.45,0.17,2.33,1.89,2.01c1.21-0.23,1.38,0.48,1.33,1.47c-0.09,1.58,0.55,3.61-2.35,3.03
		c-0.81-0.16-0.83,0.52-0.83,1.11c0,4.36,0.03,8.71-0.01,13.07c-0.02,1.45,0.92,1.39,1.83,1.28c1.36-0.16,2.01,0.31,1.73,1.72
		c-0.24,1.18,0.97,2.93-1.73,3.05c-6.28,0.26-7.27-0.53-7.27-6.84C518.73,470.69,518.73,469.08,518.73,467.46z"/>
	<path class="st3" d="M447.19,463.54c0,4.57-0.04,9.14,0.03,13.71c0.02,1.31-0.24,1.82-1.7,1.8c-3.74-0.05-3.74,0.03-3.74-3.7
		c0-8.37,0.03-16.73-0.03-25.1c-0.01-1.51,0.18-2.21,1.98-2.13c3.46,0.16,3.47,0.04,3.47,3.6
		C447.19,455.66,447.19,459.6,447.19,463.54z"/>
	<path class="st3" d="M499.24,468.03c0-3.02-0.02-6.04,0.01-9.06c0.03-3.01,1.43-4.59,4.43-4.74c1.89-0.09,3.79,0.19,5.68,0.2
		c1.16,0.01,1.07,0.79,0.91,1.42c-0.24,0.96,0.87,2.29-0.74,2.87c-0.19,0.07-0.42,0.02-0.63,0.05c-4.25,0.51-4.25,0.51-4.25,4.75
		c0,4.56-0.07,9.13,0.04,13.69c0.03,1.51-0.44,1.87-1.88,1.84c-3.57-0.07-3.57,0-3.57-3.64
		C499.24,472.95,499.24,470.49,499.24,468.03z"/>
	<path class="st4" d="M617.99,427.44c0.18,0.18,0.35,0.35,0.53,0.53c-0.78,1.05-1.8,1.84-3.31,3.03
		C616.06,429.23,617.01,428.32,617.99,427.44z"/>
</g>
</svg>
